<mxfile host="www.draw.io" modified="2020-01-21T08:37:36.933Z" agent="Mozilla/5.0 (Windows NT 10.0; Win64; x64) AppleWebKit/537.36 (KHTML, like Gecko) Chrome/76.0.3809.132 Safari/537.36" etag="SHCHSU8o63KhzwLWA1KJ" version="12.5.5" type="github">
  <diagram id="SjLeIIDS42xYTo4wjzNZ" name="Page-1">
    <mxGraphModel dx="1389" dy="713" grid="1" gridSize="10" guides="1" tooltips="1" connect="1" arrows="1" fold="1" page="1" pageScale="1" pageWidth="850" pageHeight="1100" math="0" shadow="0">
      <root>
        <mxCell id="0"/>
        <mxCell id="1" value="aws" style="locked=1;" parent="0" visible="0"/>
        <mxCell id="gB_tlkMbJe6bkOpFI1ri-7" value="" style="outlineConnect=0;fontColor=#232F3E;gradientColor=none;fillColor=#5A30B5;strokeColor=none;dashed=0;verticalLabelPosition=bottom;verticalAlign=top;align=center;html=1;fontSize=12;fontStyle=0;aspect=fixed;pointerEvents=1;shape=mxgraph.aws4.application_load_balancer;" parent="1" vertex="1">
          <mxGeometry x="250" y="129.1" width="58" height="58" as="geometry"/>
        </mxCell>
        <mxCell id="gB_tlkMbJe6bkOpFI1ri-14" value="" style="edgeStyle=orthogonalEdgeStyle;rounded=0;orthogonalLoop=1;jettySize=auto;html=1;" parent="1" source="gB_tlkMbJe6bkOpFI1ri-8" edge="1">
          <mxGeometry relative="1" as="geometry">
            <mxPoint x="248.08621455457978" y="159" as="targetPoint"/>
          </mxGeometry>
        </mxCell>
        <mxCell id="gB_tlkMbJe6bkOpFI1ri-8" value="" style="outlineConnect=0;fontColor=#232F3E;gradientColor=none;fillColor=#5A30B5;strokeColor=none;dashed=0;verticalLabelPosition=bottom;verticalAlign=top;align=center;html=1;fontSize=12;fontStyle=0;aspect=fixed;pointerEvents=1;shape=mxgraph.aws4.hosted_zone;" parent="1" vertex="1">
          <mxGeometry x="110" y="130.37" width="58" height="57.26" as="geometry"/>
        </mxCell>
        <mxCell id="gB_tlkMbJe6bkOpFI1ri-15" value="" style="edgeStyle=orthogonalEdgeStyle;rounded=0;orthogonalLoop=1;jettySize=auto;html=1;" parent="1" target="gB_tlkMbJe6bkOpFI1ri-9" edge="1">
          <mxGeometry relative="1" as="geometry">
            <mxPoint x="305.91378544542044" y="159" as="sourcePoint"/>
          </mxGeometry>
        </mxCell>
        <mxCell id="gB_tlkMbJe6bkOpFI1ri-18" style="edgeStyle=orthogonalEdgeStyle;rounded=0;orthogonalLoop=1;jettySize=auto;html=1;entryX=0;entryY=0.504;entryDx=0;entryDy=0;entryPerimeter=0;" parent="1" source="gB_tlkMbJe6bkOpFI1ri-9" target="gB_tlkMbJe6bkOpFI1ri-6" edge="1">
          <mxGeometry relative="1" as="geometry"/>
        </mxCell>
        <mxCell id="gB_tlkMbJe6bkOpFI1ri-9" value="" style="outlineConnect=0;fontColor=#232F3E;gradientColor=none;fillColor=#D05C17;strokeColor=none;dashed=0;verticalLabelPosition=bottom;verticalAlign=top;align=center;html=1;fontSize=12;fontStyle=0;aspect=fixed;pointerEvents=1;shape=mxgraph.aws4.lambda_function;" parent="1" vertex="1">
          <mxGeometry x="360" y="129.5" width="59" height="59" as="geometry"/>
        </mxCell>
        <mxCell id="gB_tlkMbJe6bkOpFI1ri-11" value="" style="group" parent="1" vertex="1" connectable="0">
          <mxGeometry x="470" y="128.5" width="92" height="59" as="geometry"/>
        </mxCell>
        <mxCell id="gB_tlkMbJe6bkOpFI1ri-6" value="" style="outlineConnect=0;fontColor=#232F3E;gradientColor=none;fillColor=#5A30B5;strokeColor=none;dashed=0;verticalLabelPosition=bottom;verticalAlign=top;align=center;html=1;fontSize=12;fontStyle=0;aspect=fixed;pointerEvents=1;shape=mxgraph.aws4.endpoints;" parent="gB_tlkMbJe6bkOpFI1ri-11" vertex="1">
          <mxGeometry y="16.984848484848484" width="26.818181818181817" height="26.818181818181817" as="geometry"/>
        </mxCell>
        <mxCell id="gB_tlkMbJe6bkOpFI1ri-10" value="" style="outlineConnect=0;fontColor=#232F3E;gradientColor=none;fillColor=#5A30B5;strokeColor=none;dashed=0;verticalLabelPosition=bottom;verticalAlign=top;align=center;html=1;fontSize=12;fontStyle=0;aspect=fixed;pointerEvents=1;shape=mxgraph.aws4.endpoint;" parent="gB_tlkMbJe6bkOpFI1ri-11" vertex="1">
          <mxGeometry x="30.040816326530614" width="59" height="59" as="geometry"/>
        </mxCell>
        <mxCell id="gB_tlkMbJe6bkOpFI1ri-12" value="" style="outlineConnect=0;fontColor=#232F3E;gradientColor=none;fillColor=#277116;strokeColor=none;dashed=0;verticalLabelPosition=bottom;verticalAlign=top;align=center;html=1;fontSize=12;fontStyle=0;aspect=fixed;pointerEvents=1;shape=mxgraph.aws4.bucket_with_objects;" parent="1" vertex="1">
          <mxGeometry x="630" y="129.5" width="55" height="57.2" as="geometry"/>
        </mxCell>
        <mxCell id="gB_tlkMbJe6bkOpFI1ri-19" value="" style="edgeStyle=orthogonalEdgeStyle;rounded=0;orthogonalLoop=1;jettySize=auto;html=1;" parent="1" source="gB_tlkMbJe6bkOpFI1ri-10" target="gB_tlkMbJe6bkOpFI1ri-12" edge="1">
          <mxGeometry relative="1" as="geometry"/>
        </mxCell>
        <mxCell id="gB_tlkMbJe6bkOpFI1ri-20" value="Route 53 &lt;br&gt;hosted zone" style="text;html=1;align=center;verticalAlign=middle;resizable=0;points=[];autosize=1;" parent="1" vertex="1">
          <mxGeometry x="99" y="204" width="80" height="30" as="geometry"/>
        </mxCell>
        <mxCell id="gB_tlkMbJe6bkOpFI1ri-21" value="ALB" style="text;html=1;align=center;verticalAlign=middle;resizable=0;points=[];autosize=1;" parent="1" vertex="1">
          <mxGeometry x="259" y="209" width="40" height="20" as="geometry"/>
        </mxCell>
        <mxCell id="gB_tlkMbJe6bkOpFI1ri-22" value="Lambda &lt;br&gt;as proxy" style="text;html=1;align=center;verticalAlign=middle;resizable=0;points=[];autosize=1;" parent="1" vertex="1">
          <mxGeometry x="360" y="204" width="60" height="30" as="geometry"/>
        </mxCell>
        <mxCell id="gB_tlkMbJe6bkOpFI1ri-23" value="API gateway&lt;br&gt;with vpc endpoint&amp;nbsp;" style="text;html=1;align=center;verticalAlign=middle;resizable=0;points=[];autosize=1;" parent="1" vertex="1">
          <mxGeometry x="480" y="204" width="110" height="30" as="geometry"/>
        </mxCell>
        <mxCell id="gB_tlkMbJe6bkOpFI1ri-24" value="S3 &lt;br&gt;bucket" style="text;html=1;align=center;verticalAlign=middle;resizable=0;points=[];autosize=1;" parent="1" vertex="1">
          <mxGeometry x="632.5" y="199" width="50" height="30" as="geometry"/>
        </mxCell>
        <mxCell id="gB_tlkMbJe6bkOpFI1ri-27" value="functional system diagram" style="" parent="0"/>
        <mxCell id="lj5Vsi1nTVtL1hlr0WQ2-30" value="Fcm App&lt;br&gt;&lt;br&gt;" style="rounded=1;whiteSpace=wrap;html=1;fillColor=#dae8fc;strokeColor=#6c8ebf;align=left;" vertex="1" parent="gB_tlkMbJe6bkOpFI1ri-27">
          <mxGeometry x="240" y="117" width="530" height="60" as="geometry"/>
        </mxCell>
        <mxCell id="lj5Vsi1nTVtL1hlr0WQ2-25" value="MSN View" style="rounded=1;whiteSpace=wrap;html=1;fillColor=#dae8fc;strokeColor=#6c8ebf;" vertex="1" parent="gB_tlkMbJe6bkOpFI1ri-27">
          <mxGeometry x="430" y="127" width="100" height="40" as="geometry"/>
        </mxCell>
        <mxCell id="lj5Vsi1nTVtL1hlr0WQ2-26" value="API platform (1)" style="rounded=1;whiteSpace=wrap;html=1;fillColor=#f8cecc;strokeColor=#b85450;" vertex="1" parent="gB_tlkMbJe6bkOpFI1ri-27">
          <mxGeometry x="240" y="217" width="530" height="60" as="geometry"/>
        </mxCell>
        <mxCell id="lj5Vsi1nTVtL1hlr0WQ2-27" value="DB Storage&amp;nbsp; (1)" style="rounded=1;whiteSpace=wrap;html=1;fillColor=#f8cecc;strokeColor=#b85450;" vertex="1" parent="gB_tlkMbJe6bkOpFI1ri-27">
          <mxGeometry x="240" y="310" width="530" height="60" as="geometry"/>
        </mxCell>
        <mxCell id="lj5Vsi1nTVtL1hlr0WQ2-28" value="" style="endArrow=classic;startArrow=classic;html=1;fontColor=#FFFFFF;" edge="1" parent="gB_tlkMbJe6bkOpFI1ri-27">
          <mxGeometry width="50" height="50" relative="1" as="geometry">
            <mxPoint x="499.5" y="307" as="sourcePoint"/>
            <mxPoint x="499.5" y="277" as="targetPoint"/>
          </mxGeometry>
        </mxCell>
        <mxCell id="lj5Vsi1nTVtL1hlr0WQ2-29" value="" style="endArrow=classic;startArrow=classic;html=1;fontColor=#FFFFFF;" edge="1" parent="gB_tlkMbJe6bkOpFI1ri-27">
          <mxGeometry width="50" height="50" relative="1" as="geometry">
            <mxPoint x="499.5" y="215" as="sourcePoint"/>
            <mxPoint x="499.5" y="185" as="targetPoint"/>
          </mxGeometry>
        </mxCell>
        <mxCell id="lj5Vsi1nTVtL1hlr0WQ2-31" value="TLB / CLB Dash" style="rounded=1;whiteSpace=wrap;html=1;fillColor=#dae8fc;strokeColor=#6c8ebf;" vertex="1" parent="gB_tlkMbJe6bkOpFI1ri-27">
          <mxGeometry x="320" y="127" width="100" height="40" as="geometry"/>
        </mxCell>
        <mxCell id="lj5Vsi1nTVtL1hlr0WQ2-32" value="FCM Dashboard" style="rounded=1;whiteSpace=wrap;html=1;fillColor=#dae8fc;strokeColor=#6c8ebf;" vertex="1" parent="gB_tlkMbJe6bkOpFI1ri-27">
          <mxGeometry x="550" y="127" width="100" height="40" as="geometry"/>
        </mxCell>
        <mxCell id="lj5Vsi1nTVtL1hlr0WQ2-33" value="&lt;font color=&quot;#3399ff&quot;&gt;Client side (browserr)&lt;/font&gt;" style="text;html=1;align=center;verticalAlign=middle;resizable=0;points=[];autosize=1;fontColor=#FFFFFF;" vertex="1" parent="gB_tlkMbJe6bkOpFI1ri-27">
          <mxGeometry x="70" y="137" width="130" height="20" as="geometry"/>
        </mxCell>
        <mxCell id="lj5Vsi1nTVtL1hlr0WQ2-34" value="&lt;font color=&quot;#ff6666&quot;&gt;Server side (AWS)&lt;/font&gt;" style="text;html=1;align=center;verticalAlign=middle;resizable=0;points=[];autosize=1;fontColor=#FFFFFF;" vertex="1" parent="gB_tlkMbJe6bkOpFI1ri-27">
          <mxGeometry x="80" y="270" width="110" height="20" as="geometry"/>
        </mxCell>
        <mxCell id="lj5Vsi1nTVtL1hlr0WQ2-35" value="&lt;font color=&quot;#000000&quot;&gt;(1) : detailled in MyAD Platform API ARD&lt;/font&gt;" style="text;html=1;align=center;verticalAlign=middle;resizable=0;points=[];autosize=1;fontColor=#FFFFFF;" vertex="1" parent="gB_tlkMbJe6bkOpFI1ri-27">
          <mxGeometry x="240" y="420" width="230" height="20" as="geometry"/>
        </mxCell>
        <mxCell id="lj5Vsi1nTVtL1hlr0WQ2-37" value="Reporting" style="rounded=1;whiteSpace=wrap;html=1;fillColor=#dae8fc;strokeColor=#6c8ebf;" vertex="1" parent="gB_tlkMbJe6bkOpFI1ri-27">
          <mxGeometry x="660" y="127" width="100" height="40" as="geometry"/>
        </mxCell>
        <mxCell id="lj5Vsi1nTVtL1hlr0WQ2-1" value="contextual view" style="" parent="0" visible="0"/>
        <mxCell id="lj5Vsi1nTVtL1hlr0WQ2-4" value="" style="outlineConnect=0;fontColor=#232F3E;gradientColor=#F54749;gradientDirection=north;fillColor=#C7131F;strokeColor=#ffffff;dashed=0;verticalLabelPosition=bottom;verticalAlign=top;align=center;html=1;fontSize=12;fontStyle=0;aspect=fixed;shape=mxgraph.aws4.resourceIcon;resIcon=mxgraph.aws4.api_gateway;" vertex="1" parent="lj5Vsi1nTVtL1hlr0WQ2-1">
          <mxGeometry x="260" y="188" width="134" height="134" as="geometry"/>
        </mxCell>
        <mxCell id="lj5Vsi1nTVtL1hlr0WQ2-5" value="MyAD platform&lt;br&gt;&amp;nbsp;API" style="text;html=1;align=center;verticalAlign=middle;resizable=0;points=[];autosize=1;fontColor=#FFFFFF;fontStyle=1" vertex="1" parent="lj5Vsi1nTVtL1hlr0WQ2-1">
          <mxGeometry x="277" y="189" width="100" height="30" as="geometry"/>
        </mxCell>
        <mxCell id="lj5Vsi1nTVtL1hlr0WQ2-7" value="" style="outlineConnect=0;fontColor=#232F3E;gradientColor=#4D72F3;gradientDirection=north;fillColor=#3334B9;strokeColor=#ffffff;dashed=0;verticalLabelPosition=bottom;verticalAlign=top;align=center;html=1;fontSize=12;fontStyle=0;aspect=fixed;shape=mxgraph.aws4.resourceIcon;resIcon=mxgraph.aws4.database;" vertex="1" parent="lj5Vsi1nTVtL1hlr0WQ2-1">
          <mxGeometry x="472" y="189.5" width="132.5" height="132.5" as="geometry"/>
        </mxCell>
        <mxCell id="lj5Vsi1nTVtL1hlr0WQ2-8" value="MyAD DB" style="text;html=1;align=center;verticalAlign=middle;resizable=0;points=[];autosize=1;fontColor=#FFFFFF;" vertex="1" parent="lj5Vsi1nTVtL1hlr0WQ2-1">
          <mxGeometry x="503.25" y="260" width="70" height="20" as="geometry"/>
        </mxCell>
        <mxCell id="lj5Vsi1nTVtL1hlr0WQ2-9" value="" style="endArrow=classic;startArrow=classic;html=1;fontColor=#FFFFFF;" edge="1" parent="lj5Vsi1nTVtL1hlr0WQ2-1">
          <mxGeometry width="50" height="50" relative="1" as="geometry">
            <mxPoint x="170" y="249.5" as="sourcePoint"/>
            <mxPoint x="250" y="249.5" as="targetPoint"/>
          </mxGeometry>
        </mxCell>
        <mxCell id="lj5Vsi1nTVtL1hlr0WQ2-10" value="" style="endArrow=classic;startArrow=classic;html=1;fontColor=#FFFFFF;" edge="1" parent="lj5Vsi1nTVtL1hlr0WQ2-1">
          <mxGeometry width="50" height="50" relative="1" as="geometry">
            <mxPoint x="399" y="249.5" as="sourcePoint"/>
            <mxPoint x="469" y="249.5" as="targetPoint"/>
            <Array as="points">
              <mxPoint x="469" y="249.5"/>
            </Array>
          </mxGeometry>
        </mxCell>
        <mxCell id="lj5Vsi1nTVtL1hlr0WQ2-15" value="&lt;font color=&quot;#000000&quot;&gt;MyAD DB contains &lt;br&gt;data from cVault / Jaguar&lt;br&gt;&lt;/font&gt;" style="text;html=1;align=center;verticalAlign=middle;resizable=0;points=[];autosize=1;fontColor=#FFFFFF;" vertex="1" parent="lj5Vsi1nTVtL1hlr0WQ2-1">
          <mxGeometry x="612" y="235" width="150" height="30" as="geometry"/>
        </mxCell>
        <mxCell id="lj5Vsi1nTVtL1hlr0WQ2-17" value="" style="group" vertex="1" connectable="0" parent="lj5Vsi1nTVtL1hlr0WQ2-1">
          <mxGeometry x="10" y="210" width="40" height="90" as="geometry"/>
        </mxCell>
        <mxCell id="lj5Vsi1nTVtL1hlr0WQ2-2" value="" style="verticalLabelPosition=bottom;html=1;fillColor=#2B2FAB;verticalAlign=top;align=center;pointerEvents=1;shape=mxgraph.cisco_safe.design.actor_2;strokeColor=#6c8ebf;" vertex="1" parent="lj5Vsi1nTVtL1hlr0WQ2-17">
          <mxGeometry x="5" width="30" height="70" as="geometry"/>
        </mxCell>
        <mxCell id="lj5Vsi1nTVtL1hlr0WQ2-16" value="&lt;font color=&quot;#000000&quot;&gt;FCM&lt;/font&gt;" style="text;html=1;align=center;verticalAlign=middle;resizable=0;points=[];autosize=1;fontColor=#FFFFFF;" vertex="1" parent="lj5Vsi1nTVtL1hlr0WQ2-17">
          <mxGeometry y="70" width="40" height="20" as="geometry"/>
        </mxCell>
        <mxCell id="lj5Vsi1nTVtL1hlr0WQ2-23" value="" style="group" vertex="1" connectable="0" parent="lj5Vsi1nTVtL1hlr0WQ2-1">
          <mxGeometry x="70" y="211.13" width="100" height="89.25" as="geometry"/>
        </mxCell>
        <mxCell id="lj5Vsi1nTVtL1hlr0WQ2-21" value="" style="group" vertex="1" connectable="0" parent="lj5Vsi1nTVtL1hlr0WQ2-23">
          <mxGeometry x="17.68" width="64.63" height="69.25" as="geometry"/>
        </mxCell>
        <mxCell id="lj5Vsi1nTVtL1hlr0WQ2-3" value="" style="shape=image;html=1;verticalAlign=top;verticalLabelPosition=bottom;labelBackgroundColor=#ffffff;imageAspect=0;aspect=fixed;image=https://cdn2.iconfinder.com/data/icons/line-hero-essentials/32/Essentials_screen_computer-128.png;fillColor=#2B2FAB;gradientColor=#ffffff;" vertex="1" parent="lj5Vsi1nTVtL1hlr0WQ2-21">
          <mxGeometry width="64.63" height="64.63" as="geometry"/>
        </mxCell>
        <mxCell id="lj5Vsi1nTVtL1hlr0WQ2-20" value="" style="shape=image;verticalLabelPosition=bottom;labelBackgroundColor=#ffffff;verticalAlign=top;aspect=fixed;imageAspect=0;image=https://upload.wikimedia.org/wikipedia/commons/thumb/a/a7/React-icon.svg/512px-React-icon.svg.png;" vertex="1" parent="lj5Vsi1nTVtL1hlr0WQ2-21">
          <mxGeometry x="10.166271729957797" y="7.012658227848101" width="45.1264658227848" height="31.905949367088606" as="geometry"/>
        </mxCell>
        <mxCell id="lj5Vsi1nTVtL1hlr0WQ2-22" value="" style="group" vertex="1" connectable="0" parent="lj5Vsi1nTVtL1hlr0WQ2-23">
          <mxGeometry y="69.25" width="100" height="20" as="geometry"/>
        </mxCell>
        <mxCell id="lj5Vsi1nTVtL1hlr0WQ2-19" value="&lt;font color=&quot;#000000&quot;&gt;FCM React app&lt;/font&gt;" style="text;html=1;align=center;verticalAlign=middle;resizable=0;points=[];autosize=1;fontColor=#FFFFFF;" vertex="1" parent="lj5Vsi1nTVtL1hlr0WQ2-22">
          <mxGeometry width="100" height="20" as="geometry"/>
        </mxCell>
      </root>
    </mxGraphModel>
  </diagram>
</mxfile>
